# File created by Blade
# Date/Time:  Wed Apr 08 17:35:25 2015
# Frame Rate: 120.000 fps
#------------------------------------------------------
:FULLY-SPECIFIED
:DEGREES
2072
root 9.986760 38.530295 4.180657 160.243607 -52.405841 -120.964047
Spine -11.840172 0.696491 10.580636
Head 18.737974 -27.184193 26.630484
LeftShoulder -6.375949 17.405700 20.329206
LeftArm 21.518252 26.301674 -73.047478
LeftForeArm 18.185366 -0.000000 29.773806
LeftHand -13.621298 -0.000000 -9.000802
LeftHandThumb1 -26.253704 0.000000 33.147579
RightShoulder -39.272092 -46.815336 22.787026
RightArm 47.655802 -10.424520 60.541320
RightForeArm 3.408213 -0.000000 9.541713
RightHand 1.315584 0.000000 -6.054512
RightHandThumb1 -24.326973 -0.000000 -32.862282
LeftUpLeg -45.417195 35.895817 2.804850
LeftLeg 11.378475 -0.000000 -0.000000
LeftFoot -6.633289 16.636033 -0.452802
LeftToeBase 3.225267 -0.000000 -0.000000
RightUpLeg -69.832591 -17.214036 -8.110469
RightLeg 128.029781 -0.000000 -0.000000
RightFoot 11.758950 4.973795 17.089750
RightToeBase 11.604663 -0.000000 -0.000000
2073
root 9.984489 38.516383 4.172512 159.918732 -52.473696 -120.976919
Spine -11.311642 0.540805 10.534283
Head 18.576927 -27.074381 26.764290
LeftShoulder -6.368999 17.345738 20.319688
LeftArm 21.555633 26.258883 -72.941282
LeftForeArm 18.228967 -0.000000 29.755909
LeftHand -13.693108 -0.000000 -8.949475
LeftHandThumb1 -26.253704 0.000000 33.147579
RightShoulder -39.241567 -46.734217 22.814422
RightArm 47.650955 -10.359427 60.614862
RightForeArm 3.382976 -0.000000 9.447302
RightHand 1.251029 0.000000 -6.189144
RightHandThumb1 -24.326973 -0.000000 -32.862282
LeftUpLeg -45.024917 35.862167 2.993598
LeftLeg 11.402367 -0.000000 -0.000000
LeftFoot -6.728754 16.563961 -0.449614
LeftToeBase 3.213567 -0.000000 -0.000000
RightUpLeg -68.810007 -16.580487 -9.337202
RightLeg 128.215130 -0.000000 -0.000000
RightFoot 16.149808 5.188248 17.842382
RightToeBase 11.090645 -0.000000 -0.000000
2074
root 9.982431 38.503312 4.163521 159.571338 -52.551979 -120.977583
Spine -10.769033 0.368245 10.477414
Head 18.397876 -26.949971 26.942564
LeftShoulder -6.352324 17.251967 20.319720
LeftArm 21.544366 26.163572 -72.885579
LeftForeArm 18.293185 -0.000000 29.716474
LeftHand -13.575833 -0.000000 -9.170387
LeftHandThumb1 -26.253704 0.000000 33.147579
RightShoulder -39.131713 -46.646705 22.785068
RightArm 47.594991 -10.283472 60.722775
RightForeArm 3.281964 -0.000000 9.347717
RightHand 1.233104 -0.000000 -6.269093
RightHandThumb1 -24.326973 -0.000000 -32.862282
LeftUpLeg -44.637643 35.840639 3.165307
LeftLeg 11.420524 -0.000000 -0.000000
LeftFoot -6.809490 16.481805 -0.441675
LeftToeBase 3.197324 -0.000000 -0.000000
RightUpLeg -67.771247 -15.903900 -10.545419
RightLeg 128.399467 -0.000000 -0.000000
RightFoot 20.767097 5.378130 19.208980
RightToeBase 10.632791 -0.000000 -0.000000
2075
root 9.982303 38.492713 4.156956 159.309313 -52.610615 -121.009545
Spine -10.299170 0.224441 10.402000
Head 18.234225 -26.783350 27.118112
LeftShoulder -6.343593 17.205205 20.325911
LeftArm 21.557053 26.081641 -72.817766
LeftForeArm 18.401227 -0.000000 29.687817
LeftHand -13.731547 -0.000000 -9.030947
LeftHandThumb1 -26.253704 0.000000 33.147579
RightShoulder -39.046724 -46.588828 22.784419
RightArm 47.575868 -10.227535 60.774325
RightForeArm 3.146127 0.000000 9.272441
RightHand 1.103105 -0.000000 -6.387202
RightHandThumb1 -24.326973 -0.000000 -32.862282
LeftUpLeg -44.336535 35.873424 3.251190
LeftLeg 11.428531 -0.000000 -0.000000
LeftFoot -6.871958 16.364219 -0.407749
LeftToeBase 3.231170 -0.000000 -0.000000
RightUpLeg -66.826876 -15.191480 -11.624454
RightLeg 128.623965 -0.000000 -0.000000
RightFoot 25.171260 5.233994 20.746218
RightToeBase 10.781468 -0.000000 -0.000000
2076
root 9.984243 38.484302 4.153111 159.170935 -52.645608 -121.075690
Spine -9.925186 0.147510 10.308912
Head 18.083752 -26.700420 27.260757
LeftShoulder -6.359935 17.148236 20.322709
LeftArm 21.581135 26.012600 -72.748211
LeftForeArm 18.464092 -0.000000 29.605363
LeftHand -13.630656 -0.000000 -9.051825
LeftHandThumb1 -26.253704 0.000000 33.147579
RightShoulder -39.021108 -46.550752 22.856135
RightArm 47.582347 -10.118014 60.824213
RightForeArm 3.034481 -0.000000 9.199931
RightHand 0.992548 -0.000000 -6.696495
RightHandThumb1 -24.326973 -0.000000 -32.862282
LeftUpLeg -44.139528 35.929032 3.264748
LeftLeg 11.416414 -0.000000 -0.000000
LeftFoot -6.915884 16.260459 -0.395539
LeftToeBase 3.266996 -0.000000 -0.000000
RightUpLeg -66.004032 -14.476842 -12.597958
RightLeg 128.945527 -0.000000 -0.000000
RightFoot 29.024259 4.867295 22.341845
RightToeBase 12.078023 -0.000000 -0.000000
2077
root 9.985078 38.475424 4.149288 159.016905 -52.671422 -121.167106
Spine -9.515977 0.083384 10.199913
Head 17.942762 -26.580208 27.403569
LeftShoulder -6.327577 17.080694 20.335593
LeftArm 21.545466 25.903311 -72.725973
LeftForeArm 18.559712 0.000000 29.569444
LeftHand -13.610339 -0.000000 -9.048042
LeftHandThumb1 -26.253704 0.000000 33.147579
RightShoulder -38.965401 -46.509317 22.889965
RightArm 47.558933 -10.020575 60.890771
RightForeArm 2.952277 -0.000000 9.173235
RightHand 0.881631 -0.000000 -6.798094
RightHandThumb1 -24.326973 -0.000000 -32.862282
LeftUpLeg -43.874127 35.989421 3.310647
LeftLeg 11.391254 -0.000000 -0.000000
LeftFoot -6.968279 16.151286 -0.403640
LeftToeBase 3.357071 -0.000000 -0.000000
RightUpLeg -65.168858 -13.773914 -13.445474
RightLeg 129.367817 -0.000000 -0.000000
RightFoot 32.212937 4.450266 23.501054
RightToeBase 14.369085 -0.000000 -0.000000
2078
root 9.991635 38.470353 4.149655 158.999551 -52.677812 -121.241690
Spine -9.269026 0.073978 10.111008
Head 17.814987 -26.514014 27.515288
LeftShoulder -6.321322 17.032305 20.347516
LeftArm 21.540062 25.835514 -72.689110
LeftForeArm 18.633867 -0.000000 29.518327
LeftHand -13.757299 -0.000000 -9.055736
LeftHandThumb1 -26.253704 0.000000 33.147579
RightShoulder -38.954541 -46.478442 22.935199
RightArm 47.545860 -9.955189 60.924813
RightForeArm 2.890820 -0.000000 9.172342
RightHand 0.730461 0.000000 -6.728635
RightHandThumb1 -24.326973 -0.000000 -32.862282
LeftUpLeg -43.803721 36.060574 3.272433
LeftLeg 11.374553 -0.000000 -0.000000
LeftFoot -7.016214 16.051103 -0.463001
LeftToeBase 3.498834 -0.000000 -0.000000
RightUpLeg -64.520959 -13.125722 -14.104940
RightLeg 129.860679 -0.000000 -0.000000
RightFoot 34.471632 4.140275 24.122460
RightToeBase 19.448672 -0.000000 -0.000000
2079
root 9.993600 38.461955 4.149889 159.008511 -52.690453 -121.419375
Spine -8.963850 0.072575 9.948665
Head 17.687595 -26.426577 27.619102
LeftShoulder -6.317447 16.980622 20.364532
LeftArm 21.536706 25.789439 -72.633122
LeftForeArm 18.670044 -0.000000 29.462633
LeftHand -13.671666 -0.000000 -9.067637
LeftHandThumb1 -26.253704 0.000000 33.147579
RightShoulder -38.946522 -46.439460 22.985783
RightArm 47.547207 -9.900893 60.932873
RightForeArm 2.841736 -0.000000 9.150912
RightHand 0.634748 -0.000000 -6.598418
RightHandThumb1 -24.326973 -0.000000 -32.862282
LeftUpLeg -43.637151 36.149952 3.217749
LeftLeg 11.342232 -0.000000 -0.000000
LeftFoot -7.095755 15.931976 -0.576825
LeftToeBase 3.705768 -0.000000 -0.000000
RightUpLeg -63.817385 -12.515700 -14.751547
RightLeg 130.425500 -0.000000 -0.000000
RightFoot 35.873113 4.154462 23.908336
RightToeBase 25.043759 -0.000000 -0.000000
